#!OML:ASF H:\LiuWeirdWalks\Patient Classification 1\Patient 1\Session 1\male.ASF
:FULLY-SPECIFIED
:DEGREES
497
root 0.579056 17.9403 -16.6002 4.21862 -3.20301 -5.43731
lowerback 2.5539 -1.85297 4.60383
upperback -1.18444 -2.20136 4.29714
thorax -2.66038 -1.14075 1.95819
lowerneck -17.6095 2.29751 6.09337
upperneck 21.0316 3.73695 -9.30649
head 9.88136 1.15221 -3.78909
rclavicle 4.43787e-014 -3.65764e-014
rhumerus -42.5797 -10.7729 -72.7463
rradius 26.672
rwrist -5.93523
rhand -17.7978 -4.52251
rfingers 7.12502
rthumb 8.46545 -34.3328
lclavicle 4.43787e-014 -3.65764e-014
lhumerus -31.4723 1.55891 87.2664
lradius 29.9165
lwrist 7.95073
lhand -11.0743 -0.43338
lfingers 7.12502
lthumb 14.9489 29.0071
rfemur 10.4378 6.03881 28.2165
rtibia 8.08001
rfoot -11.1844 -13.7608
rtoes -7.74791
lfemur -28.2878 1.24518 -11.4158
ltibia 24.8531
lfoot -4.98768 12.5479
ltoes -34.252
498
root 0.605431 17.9414 -16.5278 4.23481 -2.95977 -5.41525
lowerback 2.65841 -1.87096 4.59425
upperback -1.20016 -2.21673 4.28054
thorax -2.73584 -1.14912 1.95171
lowerneck -17.7226 2.27283 6.08398
upperneck 21.0735 3.70279 -9.305
head 9.9143 1.13279 -3.79313
rclavicle -4.04527e-014 -4.77083e-015
rhumerus -42.4489 -10.8398 -72.8123
rradius 26.8518
rwrist -6.11269
rhand -17.835 -4.52087
rfingers 7.12502
rthumb 8.42953 -34.3326
lclavicle -4.04527e-014 -4.77083e-015
lhumerus -31.6911 1.24797 87.4375
lradius 29.6735
lwrist 7.77226
lhand -10.882 -0.333132
lfingers 7.12502
lthumb 15.1341 29.0935
rfemur 10.8101 5.83197 28.1084
rtibia 7.79247
rfoot -10.9652 -13.647
rtoes -8.21724
lfemur -28.2748 1.29175 -11.5617
ltibia 25.0776
lfoot -4.68203 11.9427
ltoes -33.8912
499
root 0.632917 17.9426 -16.4554 4.23788 -2.7347 -5.43437
lowerback 2.77974 -1.879 4.63181
upperback -1.20599 -2.21598 4.27588
thorax -2.812 -1.15009 1.93099
lowerneck -17.8284 2.24557 6.10358
upperneck 21.099 3.66486 -9.34015
head 9.94096 1.11019 -3.81544
rclavicle -3.35946e-014 2.46493e-014
rhumerus -42.3336 -10.8452 -72.9128
rradius 27.088
rwrist -6.36489
rhand -17.8508 -4.53335
rfingers 7.12502
rthumb 8.41428 -34.3457
lclavicle -3.35946e-014 2.46493e-014
lhumerus -31.9084 0.918286 87.6244
lradius 29.4544
lwrist 7.61455
lhand -10.6765 -0.268523
lfingers 7.12502
lthumb 15.3321 29.1431
rfemur 11.2103 5.64589 28.0342
rtibia 7.47522
rfoot -10.7138 -13.5122
rtoes -8.67875
lfemur -28.2553 1.29768 -11.6459
ltibia 25.3138
lfoot -4.41769 11.2828
ltoes -33.5883
500
root 0.661897 17.9441 -16.3829 4.23176 -2.54122 -5.49603
lowerback 2.90205 -1.8746 4.72721
upperback -1.19513 -2.19682 4.28198
thorax -2.87331 -1.14258 1.88782
lowerneck -17.9213 2.20197 6.08586
upperneck 21.1058 3.61069 -9.36213
head 9.95613 1.07903 -3.82839
rclavicle -4.76586e-014 5.725e-014
rhumerus -42.2066 -10.8394 -73.0204
rradius 27.3373
rwrist -6.61815
rhand -17.8425 -4.53782
rfingers 7.12502
rthumb 8.42231 -34.3499
lclavicle -4.76586e-014 5.725e-014
lhumerus -32.1122 0.586378 87.8219
lradius 29.2639
lwrist 7.46866
lhand -10.4541 -0.185232
lfingers 7.12502
lthumb 15.5463 29.2099
rfemur 11.6183 5.49472 27.9928
rtibia 7.16034
rfoot -10.4455 -13.3577
rtoes -9.14052
lfemur -28.2262 1.26439 -11.67
ltibia 25.5492
lfoot -4.18396 10.5995
ltoes -33.3409
501
root 0.692706 17.9466 -16.3096 4.23368 -2.40282 -5.54685
lowerback 3.00762 -1.85468 4.81812
upperback -1.18076 -2.15847 4.28919
thorax -2.92119 -1.12531 1.84637
lowerneck -18.004 2.14691 6.00237
upperneck 21.1172 3.54852 -9.33645
head 9.96821 1.04441 -3.81414
rclavicle 2.38542e-014 -1.98785e-014
rhumerus -42.0854 -10.7498 -73.1622
rradius 27.62
rwrist -6.91955
rhand -17.8274 -4.54595
rfingers 7.12502
rthumb 8.43692 -34.3574
lclavicle 2.38542e-014 -1.98785e-014
lhumerus -32.3272 0.268566 88.0295
lradius 29.1036
lwrist 7.33703
lhand -10.2367 -0.129668
lfingers 7.12502
lthumb 15.7557 29.249
rfemur 11.9981 5.40167 27.9199
rtibia 6.883
rfoot -10.1714 -13.1878
rtoes -9.62366
lfemur -28.1922 1.21758 -11.7077
ltibia 25.7784
lfoot -3.97748 9.94542
ltoes -33.0937
502
root 0.72513 17.9503 -16.2352 4.24553 -2.32519 -5.58426
lowerback 3.08947 -1.81347 4.90456
upperback -1.15897 -2.09424 4.29323
thorax -2.94768 -1.09485 1.80134
lowerneck -18.0634 2.084 5.87176
upperneck 21.0949 3.4767 -9.26588
head 9.96145 1.00755 -3.77599
rclavicle 4.72114e-015 1.82882e-014
rhumerus -41.9502 -10.6354 -73.3113
rradius 27.8969
rwrist -7.20699
rhand -17.8151 -4.55806
rfingers 7.12502
rthumb 8.4488 -34.3691
lclavicle 4.72114e-015 1.82882e-014
lhumerus -32.5415 -0.0380439 88.2451
lradius 28.9749
lwrist 7.21805
lhand -10.0364 -0.0349717
lfingers 7.12502
lthumb 15.9486 29.3284
rfemur 12.3346 5.37165 27.8163
rtibia 6.66868
rfoot -9.88912 -13.0059
rtoes -10.1626
lfemur -28.1466 1.17027 -11.7692
ltibia 26.0028
lfoot -3.79354 9.38015
ltoes -32.7806
503
root 0.75913 17.9553 -16.1589 4.26829 -2.2995 -5.59933
lowerback 3.15036 -1.75361 4.9746
upperback -1.14007 -2.00743 4.29169
thorax -2.96457 -1.05286 1.75747
lowerneck -18.1568 2.03076 5.74136
upperneck 21.1131 3.41794 -9.18654
head 9.97665 0.976554 -3.73419
rclavicle 8.54774e-015 2.14687e-014
rhumerus -41.821 -10.467 -73.4773
rradius 28.1742
rwrist -7.50219
rhand -17.8067 -4.55327
rfingers 7.12502
rthumb 8.45684 -34.3639
lclavicle 8.54774e-015 2.14687e-014
lhumerus -32.7667 -0.332515 88.4682
lradius 28.8648
lwrist 7.11233
lhand -9.86667 0.056355
lfingers 7.12502
lthumb 16.112 29.4066
rfemur 12.6182 5.39499 27.6752
rtibia 6.54224
rfoot -9.63531 -12.8183
rtoes -10.7017
lfemur -28.0857 1.14022 -11.8751
ltibia 26.2248
lfoot -3.635 8.92784
ltoes -32.3126
504
root 0.794172 17.9617 -16.081 4.30154 -2.30612 -5.58136
lowerback 3.18198 -1.68413 5.01273
upperback -1.1255 -1.91154 4.28265
thorax -2.96825 -1.00574 1.72192
lowerneck -18.2201 1.96954 5.59098
upperneck 21.1374 3.35043 -9.08609
head 9.98699 0.942953 -3.68267
rclavicle -3.47873e-016 2.3059e-014
rhumerus -41.6918 -10.2438 -73.6615
rradius 28.4461
rwrist -7.79787
rhand -17.7964 -4.54371
rfingers 7.12502
rthumb 8.46685 -34.354
lclavicle -3.47873e-016 2.3059e-014
lhumerus -33.0071 -0.622067 88.6967
lradius 28.7753
lwrist 7.03668
lhand -9.73794 0.141564
lfingers 7.12502
lthumb 16.236 29.4817
rfemur 12.8555 5.45072 27.491
rtibia 6.48786
rfoot -9.37721 -12.6282
rtoes -11.2903
lfemur -28.0108 1.11706 -12.0387
ltibia 26.4481
lfoot -3.47899 8.6053
ltoes -32.1589
505
root 0.829746 17.9693 -16.0012 4.34032 -2.33409 -5.54413
lowerback 3.19911 -1.60841 5.02876
upperback -1.11655 -1.8093 4.2679
thorax -2.96879 -0.955135 1.69192
lowerneck -18.3034 1.9113 5.47423
upperneck 21.1665 3.28687 -9.02544
head 10.0046 0.908858 -3.65094
rclavicle 7.85199e-015 3.18055e-015
rhumerus -41.5593 -9.98089 -73.864
rradius 28.705
rwrist -8.08179
rhand -17.7893 -4.5352
rfingers 7.12502
rthumb 8.47365 -34.3452
lclavicle 7.85199e-015 3.18055e-015
lhumerus -33.2573 -0.892202 88.9214
lradius 28.659
lwrist 6.86092
lhand -9.74261 0.0430866
lfingers 7.12502
lthumb 16.2315 29.3836
rfemur 13.0515 5.52703 27.2848
rtibia 6.50763
rfoot -9.12868 -12.4401
rtoes -11.877
lfemur -27.9175 1.11472 -12.2473
ltibia 26.6688
lfoot -3.32884 8.38728
ltoes -31.6943
506
root 0.865648 17.9778 -15.919 4.3679 -2.35305 -5.4802
lowerback 3.1889 -1.53468 5.02507
upperback -1.10048 -1.71361 4.24191
thorax -2.94616 -0.907193 1.66053
lowerneck -18.3543 1.85049 5.37839
upperneck 21.1704 3.21698 -8.98022
head 10.0073 0.872831 -3.62843
rclavicle -8.44835e-016 -3.10104e-014
rhumerus -41.4089 -9.71983 -74.0705
rradius 28.9335
rwrist -8.3123
rhand -17.7806 -4.53205
rfingers 7.12502
rthumb 8.48205 -34.3417
lclavicle -8.44835e-016 -3.10104e-014
lhumerus -33.4935 -1.14849 89.1374
lradius 28.5142
lwrist 6.62905
lhand -9.84225 -0.225812
lfingers 7.12502
lthumb 16.1356 29.1225
rfemur 13.2265 5.59067 27.0554
rtibia 6.60401
rfoot -8.89053 -12.264
rtoes -12.4662
lfemur -27.7928 1.11294 -12.5079
ltibia 26.8806
lfoot -3.17588 8.23643
ltoes -31.101
507
root 0.90222 17.9876 -15.8349 4.39508 -2.38838 -5.37862
lowerback 3.16936 -1.45833 4.98095
upperback -1.09884 -1.61629 4.20694
thorax -2.93215 -0.858035 1.64233
lowerneck -18.3673 1.80392 5.3515
upperneck 21.1612 3.16379 -9.00115
head 10.002 0.84355 -3.63864
rclavicle 3.22528e-014 -9.54166e-015
rhumerus -41.2771 -9.43007 -74.2763
rradius 29.1521
rwrist -8.50387
rhand -17.7506 -4.51874
rfingers 7.12502
rthumb 8.51099 -34.3272
lclavicle 3.22528e-014 -9.54166e-015
lhumerus -33.7559 -1.37694 89.3468
lradius 28.3526
lwrist 6.32927
lhand -10.0247 -0.637134
lfingers 7.12502
lthumb 15.9598 28.7253
rfemur 13.3571 5.66801 26.7832
rtibia 6.79689
rfoot -8.66761 -12.1003
rtoes -13.065
lfemur -27.6428 1.11943 -12.83
ltibia 27.072
lfoot -3.02561 8.14909
ltoes -29.863
